<mxfile host="app.diagrams.net" modified="2023-05-28T18:16:39.889Z" agent="Mozilla/5.0 (Windows NT 10.0; Win64; x64; rv:109.0) Gecko/20100101 Firefox/113.0" version="21.3.5" etag="0lZV_cnidM_vD_xQKggA" type="github">
  <diagram name="第 1 页" id="vhGpim4A5G4uQu6yr8no">
    <mxGraphModel>
      <root>
        <mxCell id="0" />
        <mxCell id="1" parent="0" />
      </root>
    </mxGraphModel>
  </diagram>
</mxfile>
